HIERARCHY
ROOT root
{
	OFFSET	0	13.1	24.9
	CHANNELS 6  Xposition Yposition Zposition Xrotation Yrotation Zrotation
	JOINT spine_1
	{
		OFFSET	0	9.99999	0
		CHANNELS 3  Xrotation Yrotation Zrotation
		JOINT spine_2
		{
			OFFSET	0	112	-10
			CHANNELS 3  Xrotation Yrotation Zrotation
			JOINT spine_3
			{
				OFFSET	0	206.5	19.3
				CHANNELS 3  Xrotation Yrotation Zrotation
				JOINT spine_4
				{
					OFFSET	0	110.4	14.6
					CHANNELS 3  Xrotation Yrotation Zrotation
					JOINT neck_1
					{
						OFFSET	0	71.8	-50.3
						CHANNELS 3  Xrotation Yrotation Zrotation
						JOINT neck_2
						{
							OFFSET	0	86.2	-25.8
							CHANNELS 3  Xrotation Yrotation Zrotation
							JOINT head_ee
							{
								OFFSET	0	179.8	-8.7
								CHANNELS 3  Xrotation Yrotation Zrotation
								End Site
								{
									OFFSET	1	0	0
								}
							}
						}
					}
					JOINT left_clavicle
					{
						OFFSET	-43.2	22.4	-70.8
						CHANNELS 3  Xrotation Yrotation Zrotation
						JOINT left_shoulder
						{
							OFFSET	-93.9	-5.79999	48.7
							CHANNELS 3  Xrotation Yrotation Zrotation
							JOINT left_elbow
							{
								OFFSET	-291.4	-30.8	15.2
								CHANNELS 3  Xrotation Yrotation Zrotation
								JOINT left_lowarm_twist
								{
									OFFSET	-110.7	-3.89999	13.6
									CHANNELS 3  Xrotation Yrotation Zrotation
									JOINT left_hand
									{
										OFFSET	-110.7	-3.89999	13.6
										CHANNELS 3  Xrotation Yrotation Zrotation
										JOINT left_ee
										{
											OFFSET	-80.8	-5.10001	12.1
											CHANNELS 3  Xrotation Yrotation Zrotation
											End Site
											{
												OFFSET	1	0	0
											}
										}
									}
								}
							}
						}
					}
					JOINT right_clavicle
					{
						OFFSET	43.2	22.4	-70.8
						CHANNELS 3  Xrotation Yrotation Zrotation
						JOINT right_shoulder
						{
							OFFSET	93.9	-5.79999	48.7
							CHANNELS 3  Xrotation Yrotation Zrotation
							JOINT right_elbow
							{
								OFFSET	291.4	-30.8	15.2
								CHANNELS 3  Xrotation Yrotation Zrotation
								JOINT right_lowarm_twist
								{
									OFFSET	110.7	-3.89999	13.6
									CHANNELS 3  Xrotation Yrotation Zrotation
									JOINT right_hand
									{
										OFFSET	110.7	-3.89999	13.6
										CHANNELS 3  Xrotation Yrotation Zrotation
										JOINT right_ee
										{
											OFFSET	80.8	-5.10001	12.1
											CHANNELS 3  Xrotation Yrotation Zrotation
											End Site
											{
												OFFSET	1	0	0
											}
										}
									}
								}
							}
						}
					}
				}
			}
		}
	}
	JOINT left_hip
	{
		OFFSET	-82.8	-127.5	0.300001
		CHANNELS 3  Xrotation Yrotation Zrotation
		JOINT left_knee
		{
			OFFSET	-28.2	-396.7	2.2
			CHANNELS 3  Xrotation Yrotation Zrotation
			JOINT left_ankle
			{
				OFFSET	-11.7	-411.3	35.4
				CHANNELS 3  Xrotation Yrotation Zrotation
				JOINT left_toes
				{
					OFFSET	0	-60	-88.6
					CHANNELS 3  Xrotation Yrotation Zrotation
					JOINT left_foot_ee
					{
						OFFSET	-22.5	-16.5	-42.2
						CHANNELS 3  Xrotation Yrotation Zrotation
						End Site
						{
							OFFSET	1	0	0
						}
					}
				}
			}
		}
	}
	JOINT right_hip
	{
		OFFSET	82.8	-127.5	0.300001
		CHANNELS 3  Xrotation Yrotation Zrotation
		JOINT right_knee
		{
			OFFSET	28.2	-396.7	2.2
			CHANNELS 3  Xrotation Yrotation Zrotation
			JOINT right_ankle
			{
				OFFSET	11.7	-411.3	35.4
				CHANNELS 3  Xrotation Yrotation Zrotation
				JOINT right_toes
				{
					OFFSET	0	-60	-88.6
					CHANNELS 3  Xrotation Yrotation Zrotation
					JOINT right_foot_ee
					{
						OFFSET	22.5	-16.5	-42.2
						CHANNELS 3  Xrotation Yrotation Zrotation
						End Site
						{
							OFFSET	1	0	0
						}
					}
				}
			}
		}
	}
}
MOTION
Frames: 12
Frame Time: 0.02
1189.71082657 743.581 -1758.05297553 -17.8676831287 35.5815993935 8.92738583281 5.70263 0.386894 1.93063 5.70466 0.263283 1.95132 5.71145 0.0434695 1.96852 5.70621 0.353756 1.93697 -18.2259 10.0097 -2.83817 -18.7654 20.7743 1.35384 -0.0 0.0 -0.0 1.13211 3.76221 2.54928 -35.8815 -24.3694 65.3322 0.40225 -11.2695 0.0396875 35.7209 -0.145602 -4.48775 -0.155927 14.0508 4.78883 -0.0 0.0 -0.0 10.8227 1.75904 -21.4639 -17.3915 44.6777 -59.0913 0.742801 20.2017 -0.132326 49.6178 0.941583 6.07266 0.135477 3.49309 0.566785 0.0 0.0 0.0 33.9256 0.607528 -4.19123 -52.4862 -1.44552 7.64753 23.3813 25.4461 -3.31388 2.18736 -0.0 -0.0 -0.0 0.0 -0.0 21.0608 18.4611 -4.65225 3.24593 0.147213 0.476231 13.2598 -20.6745 1.91151 -40.2009 0.0 0.0 0.0 0.0 0.0 
1150.85065 741.945 -1778.14786202 -19.2294455058 39.0508274453 11.5057031562 5.89706 0.326304 1.70646 5.89865 0.217073 1.72376 5.90339 0.028793 1.73713 5.8993 0.302738 1.71079 -17.8989 9.83519 -4.41764 -18.4192 21.3015 -0.250688 -0.0 0.0 -0.0 1.07052 3.9445 2.45278 -36.3007 -23.8896 67.1384 0.450562 -12.5821 0.0496716 35.9897 -0.157269 -4.52006 0.0255243 14.2574 6.00758 -0.0 0.0 -0.0 10.5933 -0.981709 -20.8257 -15.9733 44.2009 -57.3017 0.930571 24.7483 -0.204163 48.9565 0.895125 6.00188 0.527774 8.39652 0.00140484 0.0 0.0 0.0 38.3244 6.16089 -5.05936 -51.1026 -1.31954 7.47561 21.1221 24.8194 -3.01247 1.53738 -0.0 -0.0 -0.0 0.0 -0.0 18.0146 20.1456 -4.67768 2.57266 0.114459 0.378134 17.5012 -18.0007 2.45863 -38.3335 0.0 0.0 0.0 0.0 0.0 
1114.75994158 739.68 -1790.02186874 -18.3963137915 40.9241450693 11.5046254974 5.89574 0.294981 1.64699 5.89723 0.189595 1.66242 5.90106 0.00805181 1.67317 5.89726 0.272161 1.65092 -17.6014 9.8211 -5.1177 -18.1069 21.6714 -0.967409 -0.0 0.0 -0.0 0.504124 4.98583 1.51656 -38.212 -23.6062 68.5465 0.482719 -13.4485 0.0569139 35.8136 -0.149608 -4.49889 0.0402782 14.103 6.0392 -0.0 0.0 -0.0 10.4925 -0.0924044 -20.6709 -16.0628 44.413 -56.55 0.927044 24.6657 -0.202689 48.6068 0.870889 5.96424 0.554363 8.04096 -0.329522 0.0 0.0 0.0 36.7781 6.27942 -4.86092 -48.6194 -1.10406 7.15973 20.5005 24.5127 -2.92653 0.892101 -0.0 -0.0 -0.0 0.0 -0.0 16.7 19.3846 -5.25395 -0.278564 -0.0113701 -0.0412363 18.4313 -17.3434 2.57404 -39.0261 0.0 0.0 0.0 0.0 0.0 
1081.25305022 732.795 -1790.1326644 -17.9584463573 42.3142809229 11.6650756392 5.82958 0.438075 1.44004 5.83067 0.345564 1.46499 5.83826 0.182944 1.49403 5.83539 0.416577 1.4464 -13.8296 9.35608 -6.34778 -14.0743 21.7134 -3.0559 -0.0 0.0 -0.0 -0.0528247 5.88931 0.604128 -39.8274 -23.5326 70.1635 0.583037 -16.1099 0.0825115 36.6419 -0.186216 -4.59826 0.248748 13.7635 7.21792 -0.0 0.0 -0.0 10.3991 -1.15713 -20.4137 -16.3971 44.1142 -55.0875 1.03978 27.2513 -0.252048 47.6549 0.806088 5.86104 0.717582 9.94502 -0.618791 0.0 0.0 0.0 38.6581 6.36482 -6.12455 -46.0975 -0.899523 6.82984 16.3104 25.4405 -2.37955 -2.03526 0.0 0.0 -0.0 0.0 -0.0 14.1664 19.4756 -4.23364 0.324144 0.0134832 0.0479149 19.7144 -16.0076 2.72767 -39.053 0.0 0.0 0.0 0.0 0.0 
1057.33962434 731.106 -1798.28348358 -18.8095359732 43.1772357377 12.651880236 5.91058 0.424344 1.42097 5.91165 0.333074 1.44509 5.91881 0.174777 1.47263 5.91602 0.405134 1.42656 -11.967 8.56183 -5.84825 -12.0796 19.9843 -3.18992 -0.0 0.0 -0.0 -0.382317 7.48923 0.208447 -39.1053 -23.5784 70.8344 0.583892 -16.1323 0.0827489 37.2716 -0.21501 -4.67345 0.37002 13.2122 7.77234 -0.0 0.0 -0.0 10.3109 -1.12406 -20.2341 -17.2078 43.9912 -53.2188 1.18388 30.3888 -0.32154 45.387 0.658705 5.61099 0.967775 11.2474 -1.74764 0.0 0.0 0.0 38.1472 4.43967 -6.02114 -40.5576 -0.502622 6.07615 9.32499 25.5687 -1.39397 -4.91161 0.0 0.0 -0.0 0.0 -0.0 12.6441 15.1089 -4.08646 0.515868 0.0215858 0.0762202 27.3711 -13.5324 3.62842 -38.0651 0.0 0.0 0.0 0.0 0.0 
1023.84349825 720.455 -1825.92277859 -19.144209075 41.6861458245 13.1135258991 6.25012 0.263567 1.42862 6.25124 0.172135 1.44249 6.2542 0.0235147 1.45254 6.25134 0.252597 1.4306 -11.5008 10.7184 -6.39047 -11.6727 24.4277 -3.17397 -0.0 0.0 -0.0 -1.65845 8.45312 -1.91898 -38.926 -23.2454 73.9541 0.741001 -20.1567 0.131705 39.8279 -0.34034 -4.97534 0.460658 12.515 8.08136 -0.0 0.0 -0.0 9.82407 -1.23967 -19.2305 -17.5438 43.6265 -52.6688 1.5986 38.3727 -0.556295 46.8245 0.75097 5.77015 0.776614 11.6381 -0.290125 0.0 0.0 0.0 40.145 -1.22954 -5.27951 -32.1696 -0.0451309 4.87242 -0.475307 29.6788 0.0747129 -9.3081 0.0 0.0 -0.0 0.0 -0.0 8.5398 19.4742 -2.98553 0.790679 0.0333653 0.116745 32.1693 -11.1978 4.13306 -39.4688 0.0 0.0 0.0 0.0 0.0 
1015.9565924 721.101 -1835.90978815 -18.2719461246 41.3593566878 12.5470449027 6.17954 0.321838 1.41943 6.18063 0.230874 1.43703 6.18509 0.0807699 1.45321 6.18228 0.30924 1.42223 -13.8005 10.8417 -5.68994 -14.1596 24.1395 -1.92703 -0.0 0.0 -0.0 -2.26969 9.82233 -2.76779 -37.9313 -23.9216 73.9401 0.743067 -20.2083 0.132418 40.9107 -0.397477 -5.10149 0.558 12.1254 8.55456 -0.0 0.0 -0.0 9.78713 0.361251 -19.2322 -18.1163 43.398 -52.397 1.68677 39.878 -0.611939 47.5309 0.797774 5.84752 0.373119 8.06573 0.904751 0.0 0.0 0.0 37.2737 -5.58338 -4.37789 -16.3505 0.32124 2.48009 -10.4562 29.2486 1.66589 -15.6085 0.0 0.0 -0.0 0.0 -0.0 7.80367 19.511 -3.00541 -0.568959 -0.023009 -0.0842811 36.1772 -9.16072 4.52081 -37.8959 0.0 0.0 0.0 0.0 0.0 
1006.79796791 721.101 -1826.63228103 -18.6934982293 42.7570838833 13.1762844905 6.17954 0.321838 1.41943 6.18063 0.230874 1.43703 6.18509 0.0807699 1.45321 6.18228 0.30924 1.42223 -13.8005 10.8417 -5.68994 -14.1596 24.1395 -1.92703 -0.0 0.0 -0.0 -2.26969 9.82233 -2.76779 -37.9313 -23.9216 73.9401 0.743067 -20.2083 0.132418 40.9107 -0.397477 -5.10149 0.558 12.1254 8.55456 -0.0 0.0 -0.0 9.78713 0.361251 -19.2322 -18.1163 43.398 -52.397 1.68677 39.878 -0.611939 47.5309 0.797774 5.84752 0.373119 8.06573 0.904751 0.0 0.0 0.0 37.2737 -5.58338 -4.37789 -16.3505 0.32124 2.48009 -10.4562 29.2486 1.66589 -15.6085 0.0 0.0 -0.0 0.0 -0.0 7.80367 19.511 -3.00541 -0.568959 -0.023009 -0.0842811 36.1772 -9.16072 4.52081 -37.8959 0.0 0.0 0.0 0.0 0.0 
1002.00788663 720.111 -1839.03391302 -18.0751930924 41.8791629865 12.2710790126 6.20447 0.287055 1.42131 6.20557 0.196041 1.43669 6.20915 0.0467575 1.44925 6.20632 0.275029 1.42369 -15.3428 10.6947 -5.16629 -15.7993 23.4851 -1.13751 -0.0 0.0 -0.0 -2.44328 10.7143 -2.91399 -37.2845 -24.3072 73.7483 0.72407 -19.7321 0.12593 41.7477 -0.443276 -5.19827 0.621649 11.8944 8.87473 -0.0 0.0 -0.0 10.1237 1.33867 -19.9729 -18.2031 43.0045 -51.9521 1.67203 39.6309 -0.602516 48.0438 0.832352 5.90333 -0.0284971 5.52104 2.53303 0.0 0.0 0.0 34.9721 -8.64194 -4.155 -5.44063 0.185464 0.814066 -17.4869 28.8653 2.79695 -20.0179 0.0 0.0 -0.0 0.0 -0.0 7.3924 19.5346 -2.53125 -2.83113 -0.106171 -0.42147 39.2254 -7.7226 4.79526 -36.5548 0.0 0.0 0.0 0.0 0.0 
986.536185576 716.979 -1854.24570427 -18.0938735622 41.7669890187 11.7737655258 6.25883 0.26376 1.41995 6.25993 0.17288 1.43385 6.2629 0.0253601 1.44401 6.26008 0.253073 1.4219 -16.3575 10.1928 -2.79681 -16.8165 21.1355 1.10393 -0.0 0.0 -0.0 -2.41939 10.7906 -2.85958 -34.488 -23.8469 73.7802 0.719676 -19.6215 0.12445 42.7473 -0.499822 -5.31297 0.361693 12.0964 7.28892 -0.0 0.0 -0.0 10.9312 1.87206 -21.7 -19.0908 42.1564 -50.7096 1.54571 37.4387 -0.523804 48.3855 0.855668 5.94034 -0.623054 1.78543 4.93811 0.0 0.0 0.0 33.3183 -10.9364 -4.1357 1.7784 -0.0773083 -0.261934 -17.0029 27.8502 2.70157 -22.4316 0.0 0.0 -0.0 0.0 -0.0 6.27411 19.4855 -1.72379 -4.47655 -0.158254 -0.668615 38.5678 -10.7545 4.75425 -34.2574 0.0 0.0 0.0 0.0 0.0 
979.535517832 716.979 -1846.99112166 -18.3980082554 42.7817319311 12.2258694121 6.25883 0.26376 1.41995 6.25993 0.17288 1.43385 6.2629 0.0253601 1.44401 6.26008 0.253073 1.4219 -16.3575 10.1928 -2.79681 -16.8165 21.1355 1.10393 -0.0 0.0 -0.0 -2.41939 10.7906 -2.85958 -34.488 -23.8469 73.7802 0.719676 -19.6215 0.12445 42.7473 -0.499822 -5.31297 0.361693 12.0964 7.28892 -0.0 0.0 -0.0 10.9312 1.87206 -21.7 -19.0908 42.1564 -50.7096 1.54571 37.4387 -0.523804 48.3855 0.855668 5.94034 -0.623054 1.78543 4.93811 0.0 0.0 0.0 33.3183 -10.9364 -4.1357 1.7784 -0.0773083 -0.261934 -17.0029 27.8502 2.70157 -22.4316 0.0 0.0 -0.0 0.0 -0.0 6.27411 19.4855 -1.72379 -4.47655 -0.158254 -0.668615 38.5678 -10.7545 4.75425 -34.2574 0.0 0.0 0.0 0.0 0.0 
975.008877651 716.979 -1842.1528723 -18.606642641 43.4476252725 12.5311255388 6.25883 0.26376 1.41995 6.25993 0.17288 1.43385 6.2629 0.0253601 1.44401 6.26008 0.253073 1.4219 -16.3575 10.1928 -2.79681 -16.8165 21.1355 1.10393 -0.0 0.0 -0.0 -2.41939 10.7906 -2.85958 -34.488 -23.8469 73.7802 0.719676 -19.6215 0.12445 42.7473 -0.499822 -5.31297 0.361693 12.0964 7.28892 -0.0 0.0 -0.0 10.9312 1.87206 -21.7 -19.0908 42.1564 -50.7096 1.54571 37.4387 -0.523804 48.3855 0.855668 5.94034 -0.623054 1.78543 4.93811 0.0 0.0 0.0 33.3183 -10.9364 -4.1357 1.7784 -0.0773083 -0.261934 -17.0029 27.8502 2.70157 -22.4316 0.0 0.0 -0.0 0.0 -0.0 6.27411 19.4855 -1.72379 -4.47655 -0.158254 -0.668615 38.5678 -10.7545 4.75425 -34.2574 0.0 0.0 0.0 0.0 0.0 
